#!OML:ASF F:\VICON\USERDATA\INSTALL\rory3\rory3.ASF
:FULLY-SPECIFIED
:DEGREES
126
root 4.08741 16.272 -15.5088 254.629 -37.0679 -104.763
lowerback 11.3707 -1.48834 -10.9097
upperback -5.0139 -4.10804 -8.59119
thorax -11.9157 -1.31468 -2.55535
lowerneck -32.179 5.44369 1.9731
upperneck -0.56905 6.59195 8.57234
head 4.32173 4.39881 3.36315
rclavicle 1.08139e-013 1.24042e-013
rhumerus 27.0184 -38.1987 18.1796
rradius 27.6901
rwrist -2.63672
rhand -29.076 -80.5856
rfingers 7.12502
rthumb 177.575 -69.4485
lclavicle 1.08139e-013 1.24042e-013
lhumerus 55.7096 37.123 1.90191
lradius 30.6387
lwrist 47.0554
lhand -49.0823 -266.205
lfingers 7.12502
lthumb -21.708 -64.9926
rfemur -10.5683 -10.4157 18.1447
rtibia 51.228
rfoot -13.0206 -31.2408
rtoes -9.90236
lfemur -56.1825 35.4272 45.6638
ltibia 24.7104
lfoot -30.6468 45.0574
ltoes 22.7353
127
root 4.2087 16.1244 -15.2737 254.897 -35.6606 -106.169
lowerback 11.2845 -1.42257 -10.955
upperback -4.82768 -3.97923 -8.4407
thorax -11.6331 -1.25669 -2.37833
lowerneck -32.0769 5.49068 2.03474
upperneck -0.129077 6.60884 8.38213
head 4.45826 4.38499 3.30091
rclavicle 6.99722e-014 -4.77083e-014
rhumerus 22.719 -36.0704 21.0665
rradius 27.8608
rwrist -3.81668
rhand -29.8791 -80.6733
rfingers 7.12502
rthumb 176.799 -69.371
lclavicle 6.99722e-014 -4.77083e-014
lhumerus 54.8119 36.8457 2.71903
lradius 30.4396
lwrist 47.4288
lhand -49.1814 -266.272
lfingers 7.12502
lthumb -21.8032 -64.936
rfemur -10.7666 -10.4097 19.61
rtibia 51.8316
rfoot -13.9415 -30.2288
rtoes -8.2646
lfemur -57.3367 35.6927 44.973
ltibia 25.6891
lfoot -29.0614 43.4352
ltoes 19.3199
128
root 4.33195 15.96 -15.0231 254.998 -34.2604 -107.474
lowerback 11.3124 -1.78796 -10.5965
upperback -4.91922 -4.39491 -8.60576
thorax -11.7764 -1.46143 -2.68247
lowerneck -31.2082 6.27655 3.42184
upperneck 0.451649 7.1671 7.94531
head 4.56697 4.61345 2.9976
rclavicle -1.59028e-014 -2.00375e-013
rhumerus 20.2749 -34.6981 20.8077
rradius 27.8504
rwrist -3.87522
rhand -30.2744 -77.2629
rfingers 7.12502
rthumb 176.418 -72.7875
lclavicle -1.59028e-014 -2.00375e-013
lhumerus 52.1372 35.7293 0.782382
lradius 30.7613
lwrist 49.006
lhand -49.4184 -265.957
lfingers 7.12502
lthumb -22.0308 -65.2776
rfemur -10.8966 -10.2805 21.1679
rtibia 52.3728
rfoot -12.8416 -29.863
rtoes -9.69986
lfemur -58.6995 35.829 44.2276
ltibia 27.0845
lfoot -28.7162 40.5644
ltoes 9.43162
129
root 4.46203 15.7907 -14.7567 255.191 -32.928 -108.822
lowerback 11.1244 -1.63606 -10.1456
upperback -4.59176 -4.05763 -8.20774
thorax -11.2798 -1.35416 -2.53342
lowerneck -32.5009 5.77607 1.49708
upperneck 1.3654 6.99859 8.13371
head 4.97475 4.52561 3.40181
rclavicle 1.90833e-014 -6.67916e-014
rhumerus 16.6416 -33.5236 23.1851
rradius 28.0089
rwrist -5.11957
rhand -30.0497 -79.836
rfingers 7.12502
rthumb 176.635 -70.2108
lclavicle 1.90833e-014 -6.67916e-014
lhumerus 51.0735 35.6062 2.21565
lradius 30.5387
lwrist 49.6445
lhand -49.5934 -265.163
lfingers 7.12502
lthumb -22.1988 -66.0915
rfemur -11.2624 -10.1157 22.873
rtibia 53.0512
rfoot -11.0865 -29.8006
rtoes -12.7529
lfemur -61.7535 37.0793 41.1815
ltibia 29.2102
lfoot -27.2553 38.538
ltoes 6.79501
130
root 4.58909 15.6267 -14.4974 255.583 -31.3623 -110.378
lowerback 10.9493 -1.52872 -10.0913
upperback -4.37083 -3.84925 -8.05061
thorax -10.9144 -1.27193 -2.41996
lowerneck -33.3688 4.98516 -0.0115046
upperneck 1.91896 6.40851 8.91951
head 5.2368 4.31917 3.87321
rclavicle -7.31528e-014 -7.31528e-014
rhumerus 12.2928 -31.301 25.7617
rradius 28.5165
rwrist -6.68172
rhand -29.053 -77.7658
rfingers 7.12502
rthumb 177.597 -72.268
lclavicle -7.31528e-014 -7.31528e-014
lhumerus 50.2913 35.3059 3.48587
lradius 30.3122
lwrist 50.2743
lhand -49.6865 -264.17
lfingers 7.12502
lthumb -22.2882 -67.0951
rfemur -11.9334 -9.99197 24.3523
rtibia 53.7776
rfoot -10.6825 -29.1662
rtoes -13.6732
lfemur -65.9492 38.3776 36.4619
ltibia 32.102
lfoot -25.885 37.9673
ltoes -0.715946
131
root 4.70271 15.4865 -14.2774 255.843 -29.2742 -111.976
lowerback 11.2001 -1.78524 -10.9615
upperback -4.64967 -4.35147 -8.34996
thorax -11.3454 -1.40856 -2.19635
lowerneck -30.7553 5.94519 2.86369
upperneck 1.25653 6.88662 7.91517
head 4.77135 4.45751 3.0433
rclavicle 1.59028e-013 6.99722e-014
rhumerus 9.46845 -29.2875 25.558
rradius 28.8162
rwrist -7.0747
rhand -28.8325 -75.5792
rfingers 7.12502
rthumb 177.81 -74.4523
lclavicle 1.59028e-013 6.99722e-014
lhumerus 47.7056 33.7732 1.64959
lradius 30.7129
lwrist 52.145
lhand -49.844 -263.872
lfingers 7.12502
lthumb -22.4394 -67.4119
rfemur -12.6914 -9.64662 25.4793
rtibia 54.5236
rfoot -11.1067 -28.1938
rtoes -10.744
lfemur -69.6221 38.5205 31.945
ltibia 35.6636
lfoot -30.4472 35.9067
ltoes 2.53268
132
root 4.80169 15.3782 -14.0501 256.125 -28.6966 -113.541
lowerback 11.7132 -1.8529 -10.1955
upperback -4.57571 -4.39978 -7.73502
thorax -11.5555 -1.46961 -1.90224
lowerneck -31.8784 5.27299 0.760008
upperneck 2.36092 6.49809 9.14336
head 5.23315 4.37709 3.78708
rclavicle -6.67916e-014 -8.5875e-014
rhumerus 7.69096 -31.2701 25.6006
rradius 27.8488
rwrist -3.58355
rhand -29.7535 -79.3116
rfingers 7.12502
rthumb 176.921 -70.7309
lclavicle -6.67916e-014 -8.5875e-014
lhumerus 46.1161 33.4279 2.59614
lradius 30.6838
lwrist 52.9541
lhand -50.0115 -264.511
lfingers 7.12502
lthumb -22.6002 -66.7917
rfemur -13.7738 -9.27963 28.5199
rtibia 55.2973
rfoot -12.3203 -28.1092
rtoes -10.7834
lfemur -73.0491 37.6484 30.0618
ltibia 39.4675
lfoot -35.7418 33.6693
ltoes 12.1933
